# xmcd
#
# Track frame offsets: 
#        150
#        21273
#        36787
#        55005
#        73194
#        86297
#        103796
#        122107
#        143100
#        160929
#        176265
#        192171
#        208116
#        223918
#
# Disc length: 3150 seconds
#
# Revision: 0
# Processed by: cddbd v1.5.2PL0 Copyright (c) Steve Scherf et al.
# Submitted via: ExactAudioCopy v0.99pb5
#
DISCID=c80c4c0e
DTITLE=radar bros. - Auditorium
DYEAR=2008
DGENRE=Indie
TTITLE0=When Cold Air Goes To Sleep
TTITLE1=Warm Rising Sun
TTITLE2=Happy Spirits
TTITLE3=Hearts Of Crows
TTITLE4=On Nautilus
TTITLE5=Hills Of Stone
TTITLE6=Lake Life
TTITLE7=Watching Cows
TTITLE8=Pomona
TTITLE9=A Dog Named Ohio
TTITLE10=Brother Rabbit
TTITLE11=Morning Bird
TTITLE12=Fodder
TTITLE13=Diamond Eyes
EXTD=
EXTT0=
EXTT1=
EXTT2=
EXTT3=
EXTT4=
EXTT5=
EXTT6=
EXTT7=
EXTT8=
EXTT9=
EXTT10=
EXTT11=
EXTT12=
EXTT13=
PLAYORDER=
